<svg class="hidden">

    // Logo
  <symbol xmlns="http://www.w3.org/2000/svg" viewBox="0 0 40 32" id="indi-logo">
    <path fill-rule="evenodd" clip-rule="evenodd" d="M3.92419 2.50195L0.232813 5.0039V0L3.92419 2.50195ZM0.174805 7.33329H4.01171V31.49H0.174805V7.33329ZM6.88922 7.33329H11.6848L15.4053 21.7123V7.33329H18.9513V31.49H15.0271L10.4352 13.8614V31.49H7.03398L6.88922 7.33329ZM27.6711 7.33329H21.8579V31.49H27.6711C31.595 31.49 33.4843 29.3907 33.4843 25.5084V13.315C33.4843 9.43268 31.4787 7.33329 27.6711 7.33329ZM29.6183 25.6809C29.6183 27.4064 28.8919 28.0391 27.6711 28.0391H25.7239V10.7843H27.6711C28.8919 10.7843 29.6183 11.417 29.6183 13.1425V25.6809ZM35.9261 7.33329H39.7623V31.49H35.9261V7.33329Z" fill="#FF4E4E"></path>
  </symbol>

    // Search
  <symbol xmlns="http://www.w3.org/2000/svg" viewBox="0 0 41 41" id="search">
    <path d="M23.0453 19.438C23.0453 18.2707 22.6316 17.2733 21.8043 16.446C20.9769 15.6187 19.9739 15.1993 18.7953 15.188C17.6166 15.1767 16.6136 15.596 15.7863 16.446C14.9589 17.296 14.5453 18.2933 14.5453 19.438C14.5453 20.5827 14.9589 21.5857 15.7863 22.447C16.6136 23.3083 17.6166 23.722 18.7953 23.688C19.9739 23.654 20.9769 23.2403 21.8043 22.447C22.6316 21.6537 23.0453 20.6507 23.0453 19.438ZM27.9073 27.343C27.9073 27.6717 27.7826 27.955 27.5333 28.193C27.2839 28.431 26.9949 28.55 26.6663 28.55C26.3376 28.55 26.0599 28.431 25.8333 28.193L22.5863 24.946C21.4529 25.728 20.1893 26.119 18.7953 26.119C17.8886 26.119 17.0216 25.9433 16.1943 25.592C15.3669 25.2407 14.6586 24.7647 14.0693 24.164C13.4799 23.5633 13.0039 22.855 12.6413 22.039C12.2786 21.223 12.1029 20.356 12.1143 19.438C12.1256 18.52 12.3013 17.6587 12.6413 16.854C12.9813 16.0493 13.4573 15.3353 14.0693 14.712C14.6813 14.0887 15.3896 13.6127 16.1943 13.284C16.9989 12.9553 17.8659 12.7797 18.7953 12.757C19.7246 12.7343 20.5916 12.91 21.3963 13.284C22.2009 13.658 22.9093 14.134 23.5213 14.712C24.1333 15.29 24.6093 16.004 24.9493 16.854C25.2893 17.704 25.4649 18.5653 25.4763 19.438C25.4763 20.832 25.0853 22.0957 24.3033 23.229L27.5503 26.476C27.7883 26.714 27.9073 27.003 27.9073 27.343Z" fill="white"></path>
  </symbol>

  // Movie
  <symbol xmlns="http://www.w3.org/2000/svg" viewBox="0 0 41 41" id="movie">
    <path d="M14.532 26.731V25.507C14.532 25.3483 14.4754 25.2067 14.362 25.082C14.2487 24.9573 14.107 24.9007 13.937 24.912H12.713C12.5544 24.912 12.4127 24.9687 12.288 25.082C12.1634 25.1953 12.101 25.337 12.101 25.507V26.731C12.101 26.8897 12.1634 27.0313 12.288 27.156C12.4127 27.2807 12.5544 27.343 12.713 27.343H13.937C14.0957 27.343 14.2374 27.2807 14.362 27.156C14.4867 27.0313 14.5434 26.8897 14.532 26.731ZM14.532 23.093V21.869C14.532 21.7103 14.4754 21.5687 14.362 21.444C14.2487 21.3193 14.107 21.257 13.937 21.257H12.713C12.5544 21.257 12.4127 21.3193 12.288 21.444C12.1634 21.5687 12.101 21.7103 12.101 21.869V23.093C12.101 23.2517 12.1634 23.3933 12.288 23.518C12.4127 23.6427 12.5544 23.6993 12.713 23.688H13.937C14.0957 23.688 14.2374 23.6313 14.362 23.518C14.4867 23.4047 14.5434 23.263 14.532 23.093ZM14.532 19.438V18.231C14.532 18.061 14.4754 17.9193 14.362 17.806C14.2487 17.6927 14.107 17.6303 13.937 17.619H12.713C12.5544 17.619 12.4127 17.6813 12.288 17.806C12.1634 17.9307 12.101 18.0723 12.101 18.231V19.438C12.101 19.608 12.1634 19.7497 12.288 19.863C12.4127 19.9763 12.5544 20.0387 12.713 20.05H13.937C14.0957 20.05 14.2374 19.9877 14.362 19.863C14.4867 19.7383 14.5434 19.5967 14.532 19.438ZM24.256 26.731V21.869C24.256 21.7103 24.1937 21.5687 24.069 21.444C23.9444 21.3193 23.8027 21.257 23.644 21.257H16.351C16.1924 21.257 16.0507 21.3193 15.926 21.444C15.8014 21.5687 15.7447 21.7103 15.756 21.869V26.731C15.756 26.8897 15.8127 27.0313 15.926 27.156C16.0394 27.2807 16.181 27.343 16.351 27.343H23.644C23.814 27.343 23.9557 27.2807 24.069 27.156C24.1824 27.0313 24.2447 26.8897 24.256 26.731ZM14.532 15.8V14.593C14.532 14.423 14.4754 14.2757 14.362 14.151C14.2487 14.0263 14.107 13.9697 13.937 13.981H12.713C12.5544 13.981 12.4127 14.0377 12.288 14.151C12.1634 14.2643 12.101 14.4117 12.101 14.593V15.8C12.101 15.9587 12.1634 16.1003 12.288 16.225C12.4127 16.3497 12.5544 16.412 12.713 16.412H13.937C14.0957 16.412 14.2374 16.3497 14.362 16.225C14.4867 16.1003 14.5434 15.9587 14.532 15.8ZM27.894 26.731V25.507C27.894 25.3483 27.8317 25.2067 27.707 25.082C27.5824 24.9573 27.4407 24.9007 27.282 24.912H26.075C25.905 24.912 25.7634 24.9687 25.65 25.082C25.5367 25.1953 25.4744 25.337 25.463 25.507V26.731C25.463 26.8897 25.5254 27.0313 25.65 27.156C25.7747 27.2807 25.9164 27.343 26.075 27.343H27.282C27.452 27.343 27.5937 27.2807 27.707 27.156C27.8204 27.0313 27.8827 26.8897 27.894 26.731ZM24.256 19.438V14.593C24.256 14.423 24.1937 14.2757 24.069 14.151C23.9444 14.0263 23.8027 13.9697 23.644 13.981H16.351C16.1924 13.981 16.0507 14.0377 15.926 14.151C15.8014 14.2643 15.7447 14.4117 15.756 14.593V19.438C15.756 19.608 15.8127 19.7497 15.926 19.863C16.0394 19.9763 16.181 20.0387 16.351 20.05H23.644C23.814 20.05 23.9557 19.9877 24.069 19.863C24.1824 19.7383 24.2447 19.5967 24.256 19.438ZM27.894 23.093V21.869C27.894 21.7103 27.8317 21.5687 27.707 21.444C27.5824 21.3193 27.4407 21.257 27.282 21.257H26.075C25.905 21.257 25.7634 21.3193 25.65 21.444C25.5367 21.5687 25.4744 21.7103 25.463 21.869V23.093C25.463 23.2517 25.5254 23.3933 25.65 23.518C25.7747 23.6427 25.9164 23.6993 26.075 23.688H27.282C27.452 23.688 27.5937 23.6313 27.707 23.518C27.8204 23.4047 27.8827 23.263 27.894 23.093ZM27.894 19.438V18.231C27.894 18.061 27.8317 17.9193 27.707 17.806C27.5824 17.6927 27.4407 17.6303 27.282 17.619H26.075C25.905 17.619 25.7634 17.6813 25.65 17.806C25.5367 17.9307 25.4744 18.0723 25.463 18.231V19.438C25.463 19.608 25.5254 19.7497 25.65 19.863C25.7747 19.9763 25.9164 20.0387 26.075 20.05H27.282C27.452 20.05 27.5937 19.9877 27.707 19.863C27.8204 19.7383 27.8827 19.5967 27.894 19.438ZM27.894 15.8V14.593C27.894 14.423 27.8317 14.2757 27.707 14.151C27.5824 14.0263 27.4407 13.9697 27.282 13.981H26.075C25.905 13.981 25.7634 14.0377 25.65 14.151C25.5367 14.2643 25.4744 14.4117 25.463 14.593V15.8C25.463 15.9587 25.5254 16.1003 25.65 16.225C25.7747 16.3497 25.9164 16.412 26.075 16.412H27.282C27.452 16.412 27.5937 16.3497 27.707 16.225C27.8204 16.1003 27.8827 15.9587 27.894 15.8ZM29.101 14.287V27.037C29.101 27.4563 28.9537 27.8133 28.659 28.108C28.3644 28.4027 28.0074 28.55 27.588 28.55H12.407C11.999 28.55 11.642 28.4027 11.336 28.108C11.03 27.8133 10.8827 27.4563 10.894 27.037V14.287C10.894 13.8677 11.0414 13.5107 11.336 13.216C11.6307 12.9213 11.9877 12.7683 12.407 12.757H27.588C28.0074 12.757 28.3644 12.91 28.659 13.216C28.9537 13.522 29.101 13.879 29.101 14.287Z" fill="white"></path>
  </symbol>

  // Starred
  <symbol xmlns="http://www.w3.org/2000/svg" viewBox="0 0 41 41" id="starred">
    <path d="M22.9093 21.07L25.7993 18.248L21.8043 17.67L20.0023 14.049L18.2173 17.67L14.2053 18.248L17.1123 21.07L16.4153 25.065L20.0023 23.178L23.5893 25.065L22.9093 21.07ZM27.9073 17.687C27.9073 17.823 27.8223 17.976 27.6523 18.146L24.2183 21.495L25.0343 26.238V26.442C25.0343 26.7593 24.9039 26.918 24.6433 26.918C24.5299 26.918 24.4053 26.8783 24.2693 26.799L20.0023 24.555L15.7523 26.799C15.6163 26.8783 15.4859 26.918 15.3613 26.918C15.2366 26.918 15.1403 26.867 15.0723 26.765C15.0043 26.663 14.9703 26.5553 14.9703 26.442C14.9703 26.3967 14.9759 26.3287 14.9873 26.238L15.8033 21.495L12.3523 18.146C12.1936 17.976 12.1143 17.823 12.1143 17.687C12.1143 17.449 12.2899 17.3017 12.6413 17.245L17.4013 16.565L19.5433 12.247C19.6679 11.9863 19.8209 11.856 20.0023 11.856C20.1836 11.856 20.3423 11.9863 20.4783 12.247L22.6033 16.565L27.3633 17.245C27.7259 17.3017 27.9073 17.449 27.9073 17.687Z" fill="white"></path>
  </symbol>

  // Account
  <symbol xmlns="http://www.w3.org/2000/svg" viewBox="0 0 41 41" id="account">
    <path d="M24.1019 18.979C24.3966 19.0697 24.6799 19.1943 24.9519 19.353C25.2239 19.5117 25.5072 19.7383 25.8019 20.033C26.0966 20.3277 26.3459 20.696 26.5499 21.138C26.7539 21.58 26.9296 22.124 27.0769 22.77C27.2242 23.416 27.2922 24.164 27.2809 25.014C27.2809 25.9887 26.9636 26.8217 26.3289 27.513C25.6942 28.2043 24.9349 28.55 24.0509 28.55H15.9419C15.0579 28.55 14.2986 28.2043 13.6639 27.513C13.0292 26.8217 12.7119 25.9887 12.7119 25.014C12.7119 24.1867 12.7799 23.4387 12.9159 22.77C13.0519 22.1013 13.2276 21.5573 13.4429 21.138C13.6582 20.7187 13.9076 20.3503 14.1909 20.033C14.4742 19.7157 14.7576 19.489 15.0409 19.353C15.3242 19.217 15.6076 19.0923 15.8909 18.979C15.3922 18.197 15.1429 17.3413 15.1429 16.412C15.1429 15.7547 15.2732 15.1257 15.5339 14.525C15.7946 13.9243 16.1402 13.4087 16.5709 12.978C17.0016 12.5473 17.5172 12.2017 18.1179 11.941C18.7186 11.6803 19.3476 11.55 20.0049 11.55C20.6622 11.55 21.2856 11.6803 21.8749 11.941C22.4642 12.2017 22.9856 12.5473 23.4389 12.978C23.8922 13.4087 24.2379 13.9243 24.4759 14.525C24.7139 15.1257 24.8386 15.7547 24.8499 16.412C24.8499 17.3413 24.6006 18.197 24.1019 18.979ZM20.0049 12.757C18.9962 12.757 18.1349 13.114 17.4209 13.828C16.7069 14.542 16.3499 15.4033 16.3499 16.412C16.3499 17.4207 16.7069 18.2763 17.4209 18.979C18.1349 19.6817 18.9962 20.0387 20.0049 20.05C21.0136 20.0613 21.8692 19.7043 22.5719 18.979C23.2746 18.2537 23.6316 17.398 23.6429 16.412C23.6542 15.426 23.2972 14.5647 22.5719 13.828C21.8466 13.0913 20.9909 12.7343 20.0049 12.757ZM24.0509 27.343C24.6062 27.343 25.0822 27.1163 25.4789 26.663C25.8756 26.2097 26.0739 25.66 26.0739 25.014C26.0739 23.4953 25.8246 22.2997 25.3259 21.427C24.8272 20.5543 24.1132 20.101 23.1839 20.067C22.2659 20.8603 21.2062 21.257 20.0049 21.257C18.8036 21.257 17.7382 20.8603 16.8089 20.067C15.8796 20.101 15.1656 20.5543 14.6669 21.427C14.1682 22.2997 13.9189 23.4953 13.9189 25.014C13.9189 25.66 14.1172 26.2097 14.5139 26.663C14.9106 27.1163 15.3866 27.343 15.9419 27.343H24.0509Z" fill="white"></path>
  </symbol>
</svg>